HIERARCHY
ROOT SimulationBone
{
	OFFSET 0.000000 0.000000 0.000000
	CHANNELS 6 Xposition Yposition Zposition Zrotation Yrotation Xrotation 
	JOINT Hips
	{
		OFFSET 0.000000 0.000000 0.000000
		CHANNELS 6 Xposition Yposition Zposition Zrotation Yrotation Xrotation 
		JOINT LeftUpLeg
		{
			OFFSET 0.103458 1.857831 10.548505
			CHANNELS 3 Zrotation Yrotation Xrotation
			JOINT LeftLeg
			{
				OFFSET 43.500000 -0.000031 0.000002
				CHANNELS 3 Zrotation Yrotation Xrotation
				JOINT LeftFoot
				{
					OFFSET 42.372200 0.000023 0.000003
					CHANNELS 3 Zrotation Yrotation Xrotation
					JOINT LeftToe
					{
						OFFSET 17.299997 -0.000001 -0.000010
						CHANNELS 3 Zrotation Yrotation Xrotation
						End Site
						{
							OFFSET 0.000000 0.000000 0.000000
						}
					}
				}
			}
		}
		JOINT RightUpLeg
		{
			OFFSET 0.103457 1.857828 -10.548510
			CHANNELS 3 Zrotation Yrotation Xrotation
			JOINT RightLeg
			{
				OFFSET 43.500046 -0.000015 0.000002
				CHANNELS 3 Zrotation Yrotation Xrotation
				JOINT RightFoot
				{
					OFFSET 42.372261 -0.000008 0.000023
					CHANNELS 3 Zrotation Yrotation Xrotation
					JOINT RightToe
					{
						OFFSET 17.299990 -0.000007 -0.000002
						CHANNELS 3 Zrotation Yrotation Xrotation
						End Site
						{
							OFFSET 0.000000 0.000000 0.000000
						}
					}
				}
			}
		}
		JOINT Spine
		{
			OFFSET 6.901967 -2.603726 -0.000001
			CHANNELS 3 Zrotation Yrotation Xrotation
			JOINT Spine1
			{
				OFFSET 12.588100 -0.000009 -0.000003
				CHANNELS 3 Zrotation Yrotation Xrotation
				JOINT Spine2
				{
					OFFSET 12.343202 0.000008 0.000008
					CHANNELS 3 Zrotation Yrotation Xrotation
					JOINT Neck
					{
						OFFSET 25.832897 -0.000015 -0.000004
						CHANNELS 3 Zrotation Yrotation Xrotation
						JOINT Head
						{
							OFFSET 11.766609 0.000013 -0.000006
							CHANNELS 3 Zrotation Yrotation Xrotation
							End Site
							{
								OFFSET 0.000000 0.000000 0.000000
							}
						}
					}
					JOINT LeftShoulder
					{
						OFFSET 19.745911 -1.480373 6.000098
						CHANNELS 3 Zrotation Yrotation Xrotation
						JOINT LeftArm
						{
							OFFSET 11.284123 -0.000007 -0.000032
							CHANNELS 3 Zrotation Yrotation Xrotation
							JOINT LeftForeArm
							{
								OFFSET 33.000050 0.000005 0.000031
								CHANNELS 3 Zrotation Yrotation Xrotation
								JOINT LeftHand
								{
									OFFSET 25.200008 0.000017 0.000013
									CHANNELS 3 Zrotation Yrotation Xrotation
									End Site
									{
										OFFSET 0.000000 0.000000 0.000000
									}
								}
							}
						}
					}
					JOINT RightShoulder
					{
						OFFSET 19.746092 -1.480379 -6.000077
						CHANNELS 3 Zrotation Yrotation Xrotation
						JOINT RightArm
						{
							OFFSET 11.284136 -0.000017 -0.000017
							CHANNELS 3 Zrotation Yrotation Xrotation
							JOINT RightForeArm
							{
								OFFSET 33.000099 0.000019 0.000015
								CHANNELS 3 Zrotation Yrotation Xrotation
								JOINT RightHand
								{
									OFFSET 25.199780 0.000140 0.000408
									CHANNELS 3 Zrotation Yrotation Xrotation
									End Site
									{
										OFFSET 0.000000 0.000000 0.000000
									}
								}
							}
						}
					}
				}
			}
		}
	}
}
MOTION
Frames: 14
Frame Time: 0.033333
-246.216620 0.000000 -23.379167 0.000000 57.646545 0.000000 0.414789 87.078056 -1.536109 94.863145 -3.544829 -176.659325 158.566188 0.221901 -175.121201 -13.358485 -3.644543 4.597102 64.988437 -5.590287 -5.936695 21.454553 0.003093 0.000000 -174.920175 -5.725693 169.910450 -36.692152 4.644851 -0.022154 84.170177 -3.073475 -13.939592 21.454563 -0.003118 -0.000016 8.288266 -0.515799 0.767589 6.556919 -1.074149 1.504887 6.238890 -1.064899 1.511346 10.955003 -7.334705 -6.372036 -4.442833 8.011516 -9.095665 -167.183114 -76.534155 -14.589287 -17.814756 53.320855 31.065005 -45.872749 -14.458967 1.586558 5.619127 -3.768834 18.499569 -172.461908 73.580651 9.142598 -4.533537 -55.507332 -33.300304 -69.915715 16.045375 -2.596492 -3.297142 10.499967 -27.845245 
-244.875705 0.000000 -26.493706 0.000000 55.133546 0.000000 0.567965 86.622566 -1.355506 95.365312 -4.616136 -177.572104 158.373317 1.624995 -173.341213 -19.188380 -2.804199 2.779078 63.106590 -4.565371 -6.363618 21.454553 0.003098 0.000001 -176.932007 -4.458894 172.484488 -45.461350 3.354427 -2.140078 79.338426 -2.276546 -14.226449 21.454560 -0.003115 -0.000020 8.370064 -0.942943 0.694040 6.717016 -1.924486 1.332529 6.398823 -1.916268 1.344126 10.545982 -5.801725 -6.032291 -4.056540 7.663658 -8.529280 -167.276018 -77.004024 -14.492997 -17.674805 53.592615 34.819024 -36.051190 -12.850061 1.219890 8.179006 -2.193909 10.798563 -172.915296 73.415955 8.676518 -6.769664 -56.980635 -32.245378 -64.976785 17.523258 -2.497494 -2.150145 10.659869 -25.955967 
-243.359314 0.000000 -29.504654 0.000000 52.665986 0.000000 0.662231 86.007149 -1.327370 95.748210 -5.669386 -179.853696 157.908482 1.964500 -171.679482 -25.941962 -3.981746 -0.536244 65.382805 -2.025918 -6.592990 21.454551 0.003099 -0.000000 177.723817 -2.758490 175.630856 -58.778081 1.461986 -3.542345 71.743515 -0.867908 -10.144004 21.454557 -0.003104 -0.000020 8.436154 -1.476951 0.722847 6.844031 -2.993948 1.357781 6.525576 -2.985556 1.375846 10.123215 -4.356274 -5.407732 -4.112754 6.967443 -7.619316 -169.532904 -76.588065 -12.189697 -15.828692 53.666326 35.312262 -28.132373 -10.610729 0.911938 10.481816 -0.043932 10.108497 -174.600590 73.238240 6.945825 -9.753945 -58.927109 -29.878762 -59.066062 19.205252 -2.383167 -0.117952 9.392609 -23.816065 
-241.674534 0.000000 -32.415064 0.000000 50.254309 0.000000 0.872261 86.054359 -1.409400 96.397150 -5.662456 177.616902 159.131195 0.856902 -174.787382 -30.983862 -4.247687 -1.141282 70.117117 -0.734751 -5.005560 21.454553 0.003103 0.000000 171.845388 -2.161500 177.958666 -70.575293 -0.029856 -1.178749 63.256909 0.832931 -0.132480 21.454562 -0.003113 -0.000018 8.580335 -1.737392 0.721982 7.130658 -3.515864 1.336362 6.811990 -3.507595 1.357603 9.632162 -3.805298 -4.528811 -4.539699 6.044054 -6.485083 -173.624802 -76.560110 -8.011414 -11.900305 54.209330 37.754813 -23.890781 -10.211951 0.817931 11.420672 0.982619 18.450019 -176.327508 73.268027 5.173914 -13.738616 -60.824112 -26.824617 -51.938517 20.518414 -2.214717 2.418332 9.507728 -19.180855 
-239.828450 0.000000 -35.227989 0.000000 47.907739 0.000000 0.857522 86.430458 -1.583113 96.730303 -5.436389 175.937014 161.542990 -0.227295 -177.324661 -32.862796 -4.520989 -1.618256 73.614809 -0.102966 -4.595325 21.454550 0.003085 0.000000 166.026340 -1.434910 -177.717861 -78.421309 -2.087000 3.256473 64.288773 -1.838850 1.151742 21.454545 -0.003108 -0.000017 8.661259 -1.795499 0.540320 7.297972 -3.621429 0.967005 6.979252 -3.615380 0.988883 9.536448 -3.991932 -3.683333 -4.396722 4.689335 -5.294944 -173.883994 -75.839204 -7.741224 -8.906045 53.529415 42.668557 -24.975721 -10.102960 0.827001 10.562409 -2.262079 29.769581 -175.910798 72.938477 5.597902 -18.018386 -61.885045 -23.845111 -44.665213 20.835980 -2.000355 5.558758 9.928990 -13.002313 
-237.828150 0.000000 -37.946479 0.000000 45.634142 0.000000 0.693768 87.208801 -1.666077 96.360443 -4.912171 175.331766 164.468988 -1.036893 178.925384 -32.174641 -3.282405 -1.143605 75.681638 -0.283523 -4.232642 21.454553 0.003083 0.000000 160.379631 -0.724790 -173.751447 -81.698474 -2.876211 5.885489 68.461411 -4.053218 0.290190 21.454548 -0.003110 -0.000016 8.553263 -1.639671 0.328326 7.088612 -3.296315 0.556048 6.769949 -3.292770 0.575972 10.423292 -4.439653 -2.892096 -4.406453 3.766682 -4.266187 -174.155904 -75.963370 -7.464292 -7.697826 54.453663 46.286208 -25.879594 -10.243242 0.850234 10.005431 -6.529888 25.204909 -175.622783 72.808567 5.892282 -18.827365 -62.571916 -22.455210 -39.175264 20.318069 -1.810227 8.247964 10.741518 -6.036086 
-235.680720 0.000000 -40.573589 0.000000 43.439974 0.000000 0.480004 88.195877 -1.641099 95.807661 -4.300134 175.422018 168.108004 -1.736697 178.331813 -29.306989 -3.548060 -1.918267 76.763922 0.259581 -4.428332 21.454553 0.003094 0.000001 155.345877 0.174301 -171.225452 -81.464486 -2.217057 5.716070 69.525561 -3.582098 1.360001 21.454553 -0.003109 -0.000017 8.409302 -1.383950 0.146046 6.805196 -2.774089 0.210729 6.486687 -2.772638 0.227498 11.619609 -4.256191 -2.595570 -4.712895 2.410551 -3.582380 -172.255008 -76.776066 -9.411097 -9.148191 56.346728 45.603561 -27.252499 -10.693769 0.902116 12.147786 -7.525385 14.799177 -174.496908 72.623195 7.046957 -16.391945 -62.607215 -23.402967 -36.169468 19.178495 -1.659679 9.936107 10.640721 -1.541406 
-233.393246 0.000000 -43.112369 0.000000 41.330280 0.000000 0.311593 89.050720 -1.626352 95.315581 -3.832935 176.007301 172.073570 -1.856291 177.858864 -25.680640 -3.256141 -2.619593 77.411609 0.637133 -4.942521 21.454548 0.003092 0.000001 151.667779 0.899600 -169.522522 -77.899025 -1.300830 4.239759 69.987699 -2.957226 0.172973 21.454551 -0.003106 -0.000018 8.253992 -1.110155 -0.001853 6.496991 -2.218486 -0.065823 6.178635 -2.218704 -0.052414 12.917379 -3.959288 -2.405201 -5.201155 1.930912 -3.216355 -172.458793 -76.639668 -9.202397 -11.456422 56.949185 42.383301 -29.675826 -11.519840 0.999087 13.236072 -8.684257 9.493376 -172.462714 72.345070 9.135335 -11.603067 -61.814879 -27.740931 -34.690934 18.688236 -1.592851 10.743037 8.721694 0.811204 
-230.972815 0.000000 -45.565874 0.000000 39.308752 0.000000 0.117672 89.577469 -1.649939 94.449427 -3.576015 177.132346 175.432712 -1.948002 177.121982 -22.280137 -3.244998 -2.800801 78.061139 0.774089 -5.020654 21.454551 0.003098 0.000001 148.321478 1.772403 -169.494395 -72.018771 0.403644 3.277260 69.889303 -2.310619 0.214078 21.454558 -0.003108 -0.000019 8.031155 -0.882863 -0.235842 6.054138 -1.752271 -0.517413 5.735874 -1.755229 -0.506811 12.792755 -2.925085 -2.257044 -4.827013 1.755974 -2.952447 -172.319006 -77.157860 -9.347686 -14.661522 57.332294 39.341842 -32.982943 -12.501620 1.128924 13.458769 -9.941456 4.821257 -170.210992 72.243211 11.449532 -6.041332 -60.581456 -33.895015 -34.392024 18.481379 -1.572616 10.009645 6.927087 0.649808 
-228.426513 0.000000 -47.937154 0.000000 37.377821 0.000000 -0.191209 89.768867 -1.617029 93.303176 -3.245384 178.792678 177.934952 -2.217406 177.025881 -19.701314 -3.484865 -2.954822 79.044686 0.944043 -4.967943 21.454550 0.003103 0.000002 146.104344 2.009793 -170.568183 -63.499777 2.325221 4.272262 70.747318 -3.134985 0.099774 21.454562 -0.003111 -0.000017 7.802840 -0.631549 -0.542287 5.599186 -1.236317 -1.114385 5.281070 -1.242888 -1.106896 11.917911 -1.713421 -2.494507 -5.046742 1.049021 -2.961022 -172.269720 -78.083870 -9.402705 -18.385274 57.130393 35.753725 -36.892556 -13.477848 1.280664 12.416816 -9.166850 2.641686 -167.618798 71.845250 14.115466 -1.108417 -58.403281 -40.329484 -35.100352 18.491974 -1.589779 8.391216 4.794085 -2.430897 
-225.761426 0.000000 -50.229263 0.000000 35.538787 0.000000 -0.523320 89.614014 -1.535360 92.741520 -3.148611 -179.377090 -179.290239 -2.292891 177.239830 -17.627622 -3.723939 -3.108479 80.369238 1.110838 -4.975818 21.454553 0.003086 -0.000000 145.749912 2.573812 -172.180654 -52.574100 3.734709 5.637496 70.187475 -3.920936 0.840089 21.454558 -0.003107 -0.000017 7.803936 -0.453353 -0.837192 5.601603 -0.865920 -1.695251 5.283606 -0.876008 -1.689992 10.085661 -0.810551 -2.965058 -5.462566 0.602969 -3.281104 -171.827274 -78.847424 -9.856721 -22.995968 55.800467 30.437813 -41.632527 -14.017320 1.436942 10.914610 -7.401357 2.201631 -164.595907 71.665637 17.226290 2.661744 -56.345943 -45.224294 -36.242435 18.354387 -1.608200 7.175203 2.749741 -6.618542 
-222.984641 0.000000 -52.445253 0.000000 33.791956 0.000000 -0.685703 89.173637 -1.491234 92.470033 -3.508646 -177.762542 -176.241939 -1.850906 176.999353 -15.901080 -3.622755 -3.051729 81.776830 1.083680 -5.179241 21.454553 0.003093 0.000000 146.594246 2.983199 -173.551555 -40.142729 3.451652 6.267487 69.242231 -5.054965 -1.123819 21.454562 -0.003112 -0.000019 7.886162 -0.416758 -1.037234 5.766753 -0.781620 -2.093876 5.448842 -0.794112 -2.089122 8.271001 -0.432282 -3.632995 -5.996626 0.966987 -4.032719 -173.555066 -79.407527 -8.102539 -27.046682 53.527779 25.179388 -46.416272 -14.360112 1.596275 8.825270 -6.180622 1.708978 -162.769418 71.614540 19.106071 6.773503 -54.644085 -49.258003 -37.405620 18.243302 -1.629715 6.389973 1.421082 -10.060959 
-220.103245 0.000000 -54.588176 0.000000 32.136785 0.000000 -0.773496 88.602524 -1.493914 92.551969 -3.892381 -176.394705 -172.766807 -1.414591 177.505511 -14.190112 -3.720386 -3.492351 83.103806 1.376691 -5.524098 21.454551 0.003088 -0.000001 148.796013 3.329904 -176.327795 -27.223384 3.291097 7.174568 68.185171 -5.677503 -0.970726 21.454560 -0.003112 -0.000019 8.071965 -0.424734 -1.137936 6.139161 -0.788805 -2.296744 5.821292 -0.802519 -2.291940 6.841700 -0.027356 -4.282892 -6.902734 1.474185 -4.798580 -176.145634 -80.329780 -5.479460 -30.976049 51.348734 19.139631 -50.822632 -14.242105 1.726429 7.153714 -5.490347 2.395925 -161.865593 71.450732 20.037951 10.409043 -53.386053 -52.672179 -37.509326 18.433287 -1.644637 5.938816 -0.114655 -10.607378 
-217.124323 0.000000 -56.661085 0.000000 30.572033 0.000000 -0.794397 87.806732 -1.564062 92.876855 -4.285651 -175.841639 -169.372791 -1.015701 177.170340 -13.578242 -3.917294 -3.729972 85.304343 1.580200 -5.847321 21.454553 0.003085 -0.000001 150.664315 3.797305 178.202190 -17.860463 4.984577 10.103560 67.559143 -7.673851 -0.466692 21.454560 -0.003112 -0.000018 8.270386 -0.478316 -1.103534 6.536853 -0.893789 -2.232273 6.218982 -0.907112 -2.226838 5.804988 -0.508701 -4.720852 -7.012497 2.724932 -5.636826 -178.468376 -80.678058 -3.127035 -33.902026 48.804130 14.047209 -54.878565 -14.170511 1.858021 6.365914 -5.373009 3.443496 -160.703928 71.909031 21.227031 13.083510 -52.890307 -54.576688 -36.677491 17.708013 -1.577032 6.000226 -2.461613 -10.658376 
